<mxfile host="app.diagrams.net" modified="2023-06-17T11:09:29.958Z" agent="Mozilla/5.0 (Windows NT 10.0; Win64; x64) AppleWebKit/537.36 (KHTML, like Gecko) Chrome/114.0.0.0 Safari/537.36" version="21.4.0" etag="Z7MaX2460NGDOggt2hSs" type="github">
  <diagram name="페이지-1" id="H9R7vaavbsMjHaD84uGw">
    <mxGraphModel>
      <root>
        <mxCell id="0" />
        <mxCell id="1" parent="0" />
      </root>
    </mxGraphModel>
  </diagram>
</mxfile>
